# xmcd CD database file
#
# Track frame offsets:
#	150
#	22061
#	43969
#	65213
#	81290
#	102002
#	121176
#	140376
#	161639
#	183649
#	203919
#	223032
#	245785
#	270819
#	287717
#	308528
#
# Disc length: 4406 seconds
#
# Revision: 6
# Processed by: cddbd v1.5.2PL0 Copyright (c) Steve Scherf et al.
# Submitted via: CDex 1.51
#
DISCID=ef113410
DTITLE=artist - 33123
DYEAR=2010
DGENRE=Salsa
TTITLE0=13 - 13
TTITLE1=06 - 06
TTITLE2=chinse song
TTITLE3=15 - 15
TTITLE4=02 - 02
TTITLE5=09 - 09
TTITLE6=12 - 12
TTITLE7=A8 不死心还在 选自刘科《刻骨铭心》 - A8 不死心还在 选自刘科《刻骨铭心》
TTITLE8=A9 为你写诗 选自《网络发烧至尊》 - A9 为你写诗 选自《网络发烧至尊》
TTITLE9=A10 除了你还有谁值得让我为她流泪 选自雨天《遇情Ⅵ》 - A10 除了你还有谁值得让我为她流泪 选自雨天《遇情Ⅵ》
TTITLE10=A11 爱上别人的人 选自杨蔓《泪无声》 - A11 爱上别人的人 选自杨蔓《泪无声》
TTITLE11=A12 爱情里没有谁对谁错 选自段玫梅《天国的女儿》 - A12 爱情里没有谁对谁错 选自段玫梅《天国的女儿》
TTITLE12=A13 爱忧伤 选自张伊《爱忧伤》 - A13 爱忧伤 选自张伊《爱忧伤》
TTITLE13=A14 分手那天 选自丁咚《释放》 - A14 分手那天 选自丁咚《释放》
TTITLE14=A15 爱不在就放手 选自段玫梅《天国的女儿》 - A15 爱不在就放手 选自段玫梅《天国的女儿》
TTITLE15=A16 亲爱的那不是爱情 选自倪纯《纯情》 - A16 亲爱的那不是爱情 选自倪纯《纯情》
EXTD=YEAR: 2010
EXTT0=
EXTT1=
EXTT2=
EXTT3=
EXTT4=
EXTT5=
EXTT6=
EXTT7=
EXTT8=
EXTT9=
EXTT10=
EXTT11=
EXTT12=
EXTT13=
EXTT14=
EXTT15=
PLAYORDER=
